<svg id="floor-plan-2" class="data-svg" width="2448" height="1584" xmlns="http://www.w3.org/2000/svg" style="cursor: none;">
  <image id="floor_plan_image" href="/floor_plans/floor_2.png"/>
  <line x1="626" y1="425" x2="2294" y2="425" class="line"/><line x1="2257" y1="377" x2="2257" y2="1149" class="line"/><line x1="2269" y1="1090" x2="1925" y2="1090" class="line"/><line x1="1931" y1="1076" x2="1931" y2="1162" class="line"/><line x1="1938" y1="1122" x2="1850" y2="1122" class="line"/><line x1="1895" y1="1160" x2="1895" y2="1115" class="line"/><line x1="1888" y1="1133" x2="1888" y2="1001" class="line"/><line x1="1895" y1="1045" x2="1209" y2="1045" class="line"/><line x1="1677" y1="824" x2="710" y2="824" class="line"/><line x1="1677" y1="771" x2="712" y2="771" class="line"/><line x1="1649" y1="762" x2="1649" y2="1053" class="line"/><line x1="1239" y1="727" x2="1239" y2="1093" class="line"/><line x1="777" y1="728" x2="777" y2="857" class="line"/><line x1="1450" y1="1086" x2="1450" y2="961" class="line"/><line x1="1427" y1="1081" x2="1427" y2="962" class="line"/><line x1="640" y1="685" x2="1771" y2="685" class="line"/><line x1="1695" y1="671" x2="1695" y2="737" class="line"/><line x1="1662" y1="271" x2="1662" y2="754" class="line"/><line x1="1676" y1="741" x2="1035" y2="741" class="line"/><line x1="1181" y1="411" x2="1181" y2="691" class="line"/><line x1="1536" y1="697" x2="1536" y2="413" class="line"/><line x1="664" y1="360" x2="664" y2="1101" class="line"/><line x1="645" y1="1077" x2="1119" y2="1077" class="line"/><line x1="1116" y1="1105" x2="1116" y2="945" class="line"/><line x1="1753" y1="1033" x2="1753" y2="1087" class="line"/><line x1="2255" y1="1032" x2="2290" y2="1032" class="line"/><line x1="2252" y1="1009" x2="2290" y2="1009" class="line"/><line x1="2253" y1="883" x2="2303" y2="883" class="line"/><line x1="2248" y1="784" x2="2289" y2="784" class="line"/><line x1="2060" y1="437" x2="2060" y2="380" class="line"/><line x1="1894" y1="412" x2="1894" y2="725" class="line"/><line x1="1829" y1="721" x2="2267" y2="721" class="line"/><line x1="1836" y1="710" x2="1836" y2="842" class="line"/><line x1="1849" y1="825" x2="1742" y2="825" class="line"/><line x1="1798" y1="715" x2="1798" y2="1065" class="line"/><line x1="1812" y1="725" x2="1744" y2="725" class="line"/><line x1="1750" y1="739" x2="1750" y2="677" class="line"/><line x1="1649" y1="640" x2="1768" y2="640" class="line"/><line x1="1744" y1="390" x2="1744" y2="655" class="line"/><line x1="1231" y1="676" x2="1231" y2="707" class="line"/><line x1="1250" y1="707" x2="1184" y2="707" class="line"/><line x1="674" y1="1003" x2="294" y2="1003" class="line"/><line x1="343" y1="926" x2="289" y2="926" class="line"/><line x1="294" y1="935" x2="294" y2="874" class="line"/><line x1="305" y1="874" x2="259" y2="874" class="line"/><line x1="262" y1="879" x2="262" y2="858" class="line"/><line x1="268" y1="861" x2="241" y2="861" class="line"/><line x1="245" y1="866" x2="245" y2="849" class="line"/><line x1="256" y1="850" x2="210" y2="850" class="line"/><line x1="500" y1="1047" x2="500" y2="993" class="line"/><line x1="490" y1="1008" x2="490" y2="913" class="line"/><line x1="536" y1="1051" x2="536" y2="907" class="line"/><line x1="335" y1="906" x2="335" y2="1058" class="line"/><line x1="817" y1="1068" x2="817" y2="1102" class="line"/><line x1="846" y1="1083" x2="846" y2="1046" class="line"/><line x1="1036" y1="1087" x2="1036" y2="1044" class="line"/><line x1="1051" y1="1069" x2="1051" y2="1109" class="line"/><line x1="1095" y1="1070" x2="1095" y2="1104" class="line"/><line x1="782" y1="1070" x2="782" y2="1119" class="line"/><line x1="1372" y1="701" x2="1372" y2="633" class="line"/><line x1="1341" y1="650" x2="1410" y2="650" class="line"/><line x1="1398" y1="417" x2="1398" y2="467" class="line"/><line x1="1340" y1="417" x2="1340" y2="467" class="line"/><line x1="1246" y1="417" x2="1246" y2="464" class="line"/><line x1="1228" y1="415" x2="1228" y2="473" class="line"/><line x1="1189" y1="564" x2="1121" y2="564" class="line"/><line x1="1186" y1="591" x2="1116" y2="591" class="line"/><line x1="1088" y1="695" x2="1088" y2="633" class="line"/><line x1="763" y1="416" x2="763" y2="461" class="line"/><line x1="692" y1="419" x2="692" y2="481" class="line"/><line x1="655" y1="596" x2="725" y2="596" class="line"/><line x1="691" y1="558" x2="691" y2="640" class="line"/><line x1="796" y1="729" x2="655" y2="729" class="line"/><line x1="1362" y1="1052" x2="1362" y2="1004" class="line"/><line x1="1396" y1="993" x2="1435" y2="993" class="line"/><line x1="1443" y1="995" x2="1477" y2="995" class="line"/><line x1="1516" y1="1052" x2="1516" y2="1000" class="line"/><line x1="1614" y1="1082" x2="1614" y2="962" class="line"/><line x1="1640" y1="1084" x2="1640" y2="1039" class="line"/><line x1="1261" y1="1079" x2="1261" y2="970" class="line"/><line x1="1171" y1="623" x2="1216" y2="623" class="line"/><line x1="1884" y1="434" x2="1884" y2="382" class="line"/><line x1="1854" y1="386" x2="1915" y2="386" class="line"/><line x1="2163" y1="431" x2="2163" y2="384" class="line"/><line x1="2210" y1="428" x2="2210" y2="378" class="line"/><line x1="2076" y1="417" x2="2076" y2="463" class="line"/><line x1="2046" y1="417" x2="2046" y2="461" class="line"/><line x1="1889" y1="480" x2="1927" y2="480" class="line"/><line x1="1902" y1="472" x2="1822" y2="472" class="line"/><line x1="1901" y1="510" x2="1851" y2="510" class="line"/><line x1="1900" y1="547" x2="1855" y2="547" class="line"/><line x1="1888" y1="593" x2="1934" y2="593" class="line"/><line x1="1901" y1="636" x2="1852" y2="636" class="line"/><line x1="1885" y1="688" x2="1936" y2="688" class="line"/><line x1="1898" y1="694" x2="1852" y2="694" class="line"/><line x1="2049" y1="1080" x2="2049" y2="1135" class="line"/><line x1="1902" y1="715" x2="1902" y2="769" class="line"/><line x1="1878" y1="1060" x2="2267" y2="1060" class="line"/><line x1="1030" y1="883" x2="1076" y2="883" class="line"/><line x1="1068" y1="891" x2="1068" y2="811" class="line"/><line x1="1543" y1="433" x2="1543" y2="334" class="line"/><line x1="1550" y1="388" x2="1361" y2="388" class="line"/><line x1="1507" y1="395" x2="1507" y2="308" class="line"/><line x1="1486" y1="394" x2="1486" y2="314" class="line"/><line x1="1393" y1="395" x2="1393" y2="311" class="line"/><line x1="1306" y1="432" x2="1306" y2="378" class="line"/><line x1="1100" y1="435" x2="1100" y2="379" class="line"/><line x1="892" y1="432" x2="892" y2="393" class="line"/><line x1="796" y1="432" x2="796" y2="384" class="line"/><line x1="1691" y1="881" x2="1644" y2="881" class="line"/><line x1="1533" y1="539" x2="1668" y2="539" class="line"/><line x1="2250" y1="622" x2="2314" y2="622" class="line"/><line x1="2300" y1="617" x2="2300" y2="647" class="line"/><line x1="2288" y1="631" x2="2288" y2="595" class="line"/><line x1="2176" y1="1081" x2="2176" y2="1125" class="line"/><line x1="2002" y1="728" x2="2002" y2="682" class="line"/><line x1="2263" y1="652" x2="2213" y2="652" class="line"/><line x1="2263" y1="607" x2="2212" y2="607" class="line"/><line x1="578" y1="991" x2="534" y2="991" class="line"/><line x1="290" y1="979" x2="355" y2="979" class="line"/><line x1="1103" y1="952" x2="1252" y2="952" class="line"/><line x1="2264" y1="477" x2="2220" y2="477" class="line"/><line x1="2264" y1="690" x2="2213" y2="690" class="line"/><line x1="2252" y1="908" x2="2292" y2="908" class="line"/><circle cx="2257" cy="425" r="3" class="node" id="INT-0-2"/><circle cx="2257" cy="1090" r="3" class="node" id="INT-1-2"/><circle cx="1931" cy="1090" r="3" class="node" id="INT-2-2"/><circle cx="1931" cy="1122" r="3" class="node" id="INT-3-2"/><circle cx="1895" cy="1122" r="3" class="node" id="INT-4-2"/><circle cx="1888" cy="1122" r="3" class="node" id="INT-5-2"/><circle cx="1888" cy="1045" r="3" class="node" id="INT-6-2"/><circle cx="1217" cy="1045" r="3" class="node" id="M-212"/><circle cx="1649" cy="1045" r="3" class="node" id="INT-8-2"/><circle cx="1649" cy="824" r="3" class="node" id="INT-9-2"/><circle cx="1649" cy="771" r="3" class="node" id="INT-10-2"/><circle cx="1239" cy="1045" r="3" class="node" id="INT-11-2"/><circle cx="1239" cy="824" r="3" class="node" id="INT-12-2"/><circle cx="1239" cy="771" r="3" class="node" id="INT-13-2"/><circle cx="777" cy="824" r="3" class="node" id="INT-15-2"/><circle cx="777" cy="771" r="3" class="node" id="INT-16-2"/><circle cx="1450" cy="1045" r="3" class="node" id="INT-17-2"/><circle cx="1427" cy="1045" r="3" class="node" id="INT-18-2"/><circle cx="1695" cy="685" r="3" class="node" id="INT-19-2"/><circle cx="1662" cy="425" r="3" class="node" id="INT-20-2"/><circle cx="1662" cy="685" r="3" class="node" id="INT-21-2"/><circle cx="1239" cy="741" r="3" class="node" id="INT-22-2"/><circle cx="1662" cy="741" r="3" class="node" id="INT-23-2"/><circle cx="1181" cy="425" r="3" class="node" id="INT-26-2"/><circle cx="1181" cy="685" r="3" class="node" id="INT-27-2"/><circle cx="1536" cy="425" r="3" class="node" id="INT-34-2"/><circle cx="1536" cy="685" r="3" class="node" id="INT-35-2"/><circle cx="664" cy="425" r="3" class="node" id="INT-37-2"/><circle cx="664" cy="685" r="3" class="node" id="INT-38-2"/><circle cx="664" cy="1077" r="3" class="node" id="INT-39-2"/><circle cx="1116" cy="1077" r="3" class="node" id="INT-40-2"/><circle cx="1753" cy="1045" r="3" class="node" id="INT-43-2"/><circle cx="2257" cy="1032" r="3" class="node" id="INT-44-2"/><circle cx="2257" cy="1009" r="3" class="node" id="INT-45-2"/><circle cx="2257" cy="883" r="3" class="node" id="INT-46-2"/><circle cx="2257" cy="784" r="3" class="node" id="INT-47-2"/><circle cx="2060" cy="425" r="3" class="node" id="INT-48-2"/><circle cx="1894" cy="425" r="3" class="node" id="INT-49-2"/><circle cx="2257" cy="721" r="3" class="node" id="INT-52-2"/><circle cx="1894" cy="721" r="3" class="node" id="INT-53-2"/><circle cx="1836" cy="721" r="3" class="node" id="INT-54-2"/><circle cx="1836" cy="825" r="3" class="node" id="INT-55-2"/><circle cx="1798" cy="1045" r="3" class="node" id="INT-56-2"/><circle cx="1798" cy="825" r="3" class="node" id="INT-57-2"/><circle cx="1798" cy="725" r="3" class="node" id="INT-58-2"/><circle cx="1750" cy="685" r="3" class="node" id="INT-59-2"/><circle cx="1750" cy="725" r="3" class="node" id="INT-60-2"/><circle cx="1662" cy="640" r="3" class="node" id="INT-61-2"/><circle cx="1744" cy="425" r="3" class="node" id="INT-62-2"/><circle cx="1744" cy="640" r="3" class="node" id="US-COAT-ROOM"/><circle cx="1231" cy="685" r="3" class="node" id="INT-64-2"/><circle cx="1231" cy="707" r="3" class="node" id="INT-65-2"/><circle cx="664" cy="1003" r="3" class="node" id="INT-66-2"/><circle cx="294" cy="926" r="3" class="node" id="INT-69-2"/><circle cx="294" cy="874" r="3" class="node" id="INT-70-2"/><circle cx="262" cy="874" r="3" class="node" id="INT-71-2"/><circle cx="262" cy="861" r="3" class="node" id="INT-72-2"/><circle cx="245" cy="861" r="3" class="node" id="INT-73-2"/><circle cx="245" cy="850" r="3" class="node" id="INT-74-2"/><circle cx="500" cy="1003" r="3" class="node" id="INT-75-2"/><circle cx="490" cy="1003" r="3" class="node" id="INT-76-2"/><circle cx="536" cy="1003" r="3" class="node" id="INT-77-2"/><circle cx="335" cy="1003" r="3" class="node" id="INT-79-2"/><circle cx="335" cy="926" r="3" class="node" id="L-206"/><circle cx="817" cy="1077" r="3" class="node" id="INT-81-2"/><circle cx="846" cy="1077" r="3" class="node" id="INT-82-2"/><circle cx="1036" cy="1077" r="3" class="node" id="INT-83-2"/><circle cx="1051" cy="1077" r="3" class="node" id="INT-84-2"/><circle cx="1095" cy="1077" r="3" class="node" id="INT-85-2"/><circle cx="782" cy="1077" r="3" class="node" id="INT-86-2"/><circle cx="1372" cy="685" r="3" class="node" id="INT-87-2"/><circle cx="1372" cy="650" r="3" class="node" id="INT-88-2"/><circle cx="1398" cy="425" r="3" class="node" id="INT-89-2"/><circle cx="1340" cy="425" r="3" class="node" id="INT-90-2"/><circle cx="1246" cy="425" r="3" class="node" id="INT-91-2"/><circle cx="1228" cy="425" r="3" class="node" id="INT-92-2"/><circle cx="1181" cy="564" r="3" class="node" id="INT-93-2"/><circle cx="1181" cy="591" r="3" class="node" id="INT-94-2"/><circle cx="1088" cy="685" r="3" class="node" id="INT-99-2"/><circle cx="763" cy="425" r="3" class="node" id="INT-100-2"/><circle cx="692" cy="425" r="3" class="node" id="INT-101-2"/><circle cx="664" cy="596" r="3" class="node" id="INT-102-2"/><circle cx="691" cy="596" r="3" class="node" id="INT-103-2"/><circle cx="777" cy="729" r="3" class="node" id="INT-104-2"/><circle cx="664" cy="729" r="3" class="node" id="INT-105-2"/><circle cx="1362" cy="1045" r="3" class="node" id="INT-106-2"/><circle cx="1427" cy="993" r="3" class="node" id="INT-107-2"/><circle cx="1450" cy="995" r="3" class="node" id="INT-108-2"/><circle cx="1516" cy="1045" r="3" class="node" id="INT-109-2"/><circle cx="1614" cy="1045" r="3" class="node" id="INT-110-2"/><circle cx="1640" cy="1045" r="3" class="node" id="INT-111-2"/><circle cx="1261" cy="1045" r="3" class="node" id="INT-112-2"/><circle cx="1181" cy="623" r="3" class="node" id="INT-113-2"/><circle cx="1884" cy="425" r="3" class="node" id="INT-114-2"/><circle cx="1884" cy="386" r="3" class="node" id="INT-115-2"/><circle cx="2163" cy="425" r="3" class="node" id="INT-116-2"/><circle cx="2210" cy="425" r="3" class="node" id="INT-117-2"/><circle cx="2076" cy="425" r="3" class="node" id="INT-118-2"/><circle cx="2046" cy="425" r="3" class="node" id="INT-119-2"/><circle cx="1894" cy="480" r="3" class="node" id="INT-120-2"/><circle cx="1894" cy="472" r="3" class="node" id="INT-121-2"/><circle cx="1894" cy="510" r="3" class="node" id="INT-122-2"/><circle cx="1894" cy="547" r="3" class="node" id="INT-123-2"/><circle cx="1894" cy="593" r="3" class="node" id="INT-124-2"/><circle cx="1894" cy="636" r="3" class="node" id="INT-125-2"/><circle cx="1894" cy="688" r="3" class="node" id="INT-126-2"/><circle cx="1894" cy="694" r="3" class="node" id="INT-128-2"/><circle cx="2049" cy="1090" r="3" class="node" id="INT-129-2"/><circle cx="1902" cy="721" r="3" class="node" id="INT-130-2"/><circle cx="2257" cy="1060" r="3" class="node" id="INT-131-2"/><circle cx="1888" cy="1060" r="3" class="node" id="INT-132-2"/><circle cx="1068" cy="824" r="3" class="node" id="INT-133-2"/><circle cx="1068" cy="883" r="3" class="node" id="INT-134-2"/><circle cx="1543" cy="425" r="3" class="node" id="INT-135-2"/><circle cx="1543" cy="388" r="3" class="node" id="N-200"/><circle cx="1507" cy="388" r="3" class="node" id="INT-137-2"/><circle cx="1486" cy="388" r="3" class="node" id="INT-138-2"/><circle cx="1393" cy="388" r="3" class="node" id="INT-139-2"/><circle cx="1306" cy="425" r="3" class="node" id="INT-140-2"/><circle cx="1100" cy="425" r="3" class="node" id="INT-141-2"/><circle cx="892" cy="425" r="3" class="node" id="INT-142-2"/><circle cx="796" cy="425" r="3" class="node" id="INT-143-2"/><circle cx="1649" cy="881" r="3" class="node" id="INT-144-2"/><circle cx="892" cy="396" r="3" class="node" id="N-207"/><circle cx="796" cy="394" r="3" class="node" id="N-208"/><circle cx="1306" cy="389" r="3" class="node" id="N-203"/><circle cx="1393" cy="317" r="3" class="node" id="US-ASSISTANT-PRINCIPAL"/><circle cx="1373" cy="388" r="3" class="node" id="US-CONFERENCE-ROOM"/><circle cx="1486" cy="320" r="3" class="node" id="US-PRINCIPAL"/><circle cx="1507" cy="315" r="3" class="node" id="US-DEAN-OF-STUDENT-LIFE"/><circle cx="1398" cy="463" r="3" class="node" id="N-201-1"/><circle cx="1406" cy="650" r="3" class="node" id="N-201-2"/><circle cx="1345" cy="650" r="3" class="node" id="N-215"/><circle cx="1214" cy="623" r="3" class="node" id="N-213"/><circle cx="1126" cy="591" r="3" class="node" id="M-BATHROOM-4"/><circle cx="1130" cy="564" r="3" class="node" id="W-BATHROOM-4"/><circle cx="763" cy="453" r="3" class="node" id="N-212-1"/><circle cx="1088" cy="642" r="3" class="node" id="N-212-2"/><circle cx="536" cy="919" r="3" class="node" id="L-204"/><circle cx="536" cy="1047" r="3" class="node" id="L-203"/><circle cx="500" cy="1039" r="3" class="node" id="L-202"/><circle cx="490" cy="924" r="3" class="node" id="L-205"/><circle cx="335" cy="1042" r="3" class="node" id="L-201"/><circle cx="817" cy="1094" r="3" class="node" id="A-204"/><circle cx="846" cy="1051" r="3" class="node" id="A-200"/><circle cx="1036" cy="1050" r="3" class="node" id="A-201"/><circle cx="1051" cy="1098" r="3" class="node" id="A-203"/><circle cx="1095" cy="1101" r="3" class="node" id="A-202"/><circle cx="1239" cy="1086" r="3" class="node" id="M-200"/><circle cx="1261" cy="1071" r="3" class="node" id="M-201"/><circle cx="1261" cy="976" r="3" class="node" id="M-211"/><circle cx="1362" cy="1009" r="3" class="node" id="M-BATHROOM-5"/><circle cx="1427" cy="1070" r="3" class="node" id="M-202"/><circle cx="1450" cy="1075" r="3" class="node" id="M-203"/><circle cx="1427" cy="970" r="3" class="node" id="M-209"/><circle cx="1450" cy="971" r="3" class="node" id="M-208"/><circle cx="1614" cy="969" r="3" class="node" id="M-206"/><circle cx="1614" cy="1075" r="3" class="node" id="M-204"/><circle cx="1640" cy="1076" r="3" class="node" id="M-205"/><circle cx="1753" cy="1077" r="3" class="node" id="U-230"/><circle cx="1662" cy="539" r="3" class="node" id="INT-147-2"/><circle cx="1536" cy="539" r="3" class="node" id="INT-148-2"/><circle cx="1598" cy="539" r="3" class="node" id="US-SWAMP"/><circle cx="1912" cy="386" r="3" class="node" id="U-207"/><circle cx="1857" cy="386" r="3" class="node" id="U-206"/><circle cx="2060" cy="392" r="3" class="node" id="U-208"/><circle cx="2163" cy="388" r="3" class="node" id="U-210"/><circle cx="2076" cy="456" r="3" class="node" id="U-211"/><circle cx="2046" cy="455" r="3" class="node" id="U-209"/><circle cx="2210" cy="388" r="3" class="node" id="U-212"/><circle cx="2257" cy="388" r="3" class="node" id="U-213"/><circle cx="2257" cy="622" r="3" class="node" id="INT-150-2"/><circle cx="2300" cy="622" r="3" class="node" id="INT-151-2"/><circle cx="2288" cy="622" r="3" class="node" id="INT-152-2"/><circle cx="2288" cy="596" r="3" class="node" id="U-214-1"/><circle cx="2288" cy="425" r="3" class="node" id="U-214-2"/><circle cx="2285" cy="784" r="3" class="node" id="U-219"/><circle cx="2293" cy="883" r="3" class="node" id="U-220"/><circle cx="2288" cy="1009" r="3" class="node" id="U-221"/><circle cx="2286" cy="1032" r="3" class="node" id="U-222"/><circle cx="2257" cy="1126" r="3" class="node" id="U-223"/><circle cx="2176" cy="1090" r="3" class="node" id="INT-153-2"/><circle cx="2176" cy="1115" r="3" class="node" id="U-224"/><circle cx="2049" cy="1122" r="3" class="node" id="U-225"/><circle cx="1931" cy="1147" r="3" class="node" id="U-226"/><circle cx="1895" cy="1148" r="3" class="node" id="U-227"/><circle cx="1857" cy="1122" r="3" class="node" id="U-228"/><circle cx="1888" cy="1011" r="3" class="node" id="U-229"/><circle cx="1902" cy="753" r="3" class="node" id="U-200"/><circle cx="2002" cy="721" r="3" class="node" id="INT-154-2"/><circle cx="2002" cy="685" r="3" class="node" id="U-218"/><circle cx="2257" cy="652" r="3" class="node" id="INT-155-2"/><circle cx="2229" cy="652" r="3" class="node" id="U-216"/><circle cx="2257" cy="607" r="3" class="node" id="INT-156-2"/><circle cx="2220" cy="607" r="3" class="node" id="U-215"/><circle cx="1832" cy="472" r="3" class="node" id="U-205"/><circle cx="1863" cy="510" r="3" class="node" id="U-204"/><circle cx="1866" cy="547" r="3" class="node" id="U-202"/><circle cx="1858" cy="636" r="3" class="node" id="U-201"/><circle cx="692" cy="476" r="3" class="node" id="N-209"/><circle cx="691" cy="571" r="3" class="node" id="N-210"/><circle cx="691" cy="631" r="3" class="node" id="N-211"/><circle cx="536" cy="991" r="3" class="node" id="INT-158-2"/><circle cx="575" cy="991" r="3" class="node" id="STAIR-L-A-2"/><circle cx="335" cy="979" r="3" class="node" id="INT-159-2"/><circle cx="302" cy="979" r="3" class="node" id="STAIR-C-L-2"/><circle cx="664" cy="1027" r="3" class="node" id="STAIR-N-D-2"/><circle cx="664" cy="388" r="3" class="node" id="STAIR-N-A-2"/><circle cx="1195" cy="707" r="3" class="node" id="STAIR-N-C-2"/><circle cx="1744" cy="390" r="3" class="node" id="STAIR-N-B-2"/><circle cx="1239" cy="952" r="3" class="node" id="STAIR-M-A-2"/><circle cx="1116" cy="952" r="3" class="node" id="STAIR-E-A-2"/><circle cx="1686" cy="881" r="3" class="node" id="STAIR-M-B-2"/><circle cx="1695" cy="723" r="3" class="node" id="STAIR-H-F-2"/><circle cx="1930" cy="688" r="3" class="node" id="STAIR-H-B-2"/><circle cx="1926" cy="480" r="3" class="node" id="STAIR-H-C-2"/><circle cx="2257" cy="477" r="3" class="node" id="INT-162-2"/><circle cx="2228" cy="477" r="3" class="node" id="STAIR-H-E-2"/><circle cx="2257" cy="690" r="3" class="node" id="INT-163-2"/><circle cx="2226" cy="690" r="3" class="node" id="STAIR-H-D-2"/><circle cx="2257" cy="908" r="3" class="node" id="INT-164-2"/><circle cx="2291" cy="908" r="3" class="node" id="STAIR-H-H-2"/></svg>