<svg id="floor-plan-3" class="data-svg" width="2448" height="1584" xmlns="http://www.w3.org/2000/svg" style="cursor: none;">
  <image id="floor_plan_image" href="/floor_plans/floor_3.png"/>
  <line x1="647" y1="639" x2="1775" y2="639" class="line"/><line x1="648" y1="426" x2="2348" y2="426" class="line"/><line x1="1734" y1="392" x2="1734" y2="730" class="line"/><line x1="1183" y1="414" x2="1183" y2="742" class="line"/><line x1="1683" y1="700" x2="1828" y2="700" class="line"/><line x1="2360" y1="382" x2="2360" y2="1173" class="line"/><line x1="2371" y1="1164" x2="1731" y2="1164" class="line"/><line x1="1747" y1="1172" x2="1747" y2="1112" class="line"/><line x1="1758" y1="1150" x2="1625" y2="1150" class="line"/><line x1="1704" y1="876" x2="1704" y2="1161" class="line"/><line x1="1146" y1="1120" x2="1717" y2="1120" class="line"/><line x1="1272" y1="880" x2="1272" y2="1134" class="line"/><line x1="1284" y1="989" x2="1180" y2="989" class="line"/><line x1="1232" y1="1004" x2="1232" y2="952" class="line"/><line x1="1252" y1="888" x2="1763" y2="888" class="line"/><line x1="1748" y1="689" x2="1748" y2="902" class="line"/><line x1="1794" y1="765" x2="2367" y2="765" class="line"/><line x1="2304" y1="755" x2="2304" y2="1142" class="line"/><line x1="2318" y1="1134" x2="1785" y2="1134" class="line"/><line x1="1876" y1="1128" x2="1876" y2="1177" class="line"/><line x1="2298" y1="1117" x2="2365" y2="1117" class="line"/><line x1="2298" y1="933" x2="2371" y2="933" class="line"/><line x1="1793" y1="713" x2="2371" y2="713" class="line"/><line x1="1329" y1="386" x2="1329" y2="460" class="line"/><line x1="1447" y1="383" x2="1447" y2="465" class="line"/><line x1="1563" y1="384" x2="1563" y2="457" class="line"/><line x1="1564" y1="603" x2="1564" y2="672" class="line"/><line x1="1449" y1="604" x2="1449" y2="677" class="line"/><line x1="1209" y1="633" x2="1209" y2="678" class="line"/><line x1="1329" y1="558" x2="1329" y2="676" class="line"/><line x1="1308" y1="602" x2="1308" y2="644" class="line"/><line x1="1094" y1="602" x2="1094" y2="671" class="line"/><line x1="986" y1="601" x2="986" y2="677" class="line"/><line x1="891" y1="630" x2="891" y2="674" class="line"/><line x1="692" y1="629" x2="692" y2="675" class="line"/><line x1="790" y1="647" x2="790" y2="604" class="line"/><line x1="792" y1="386" x2="792" y2="457" class="line"/><line x1="889" y1="384" x2="889" y2="439" class="line"/><line x1="987" y1="384" x2="987" y2="434" class="line"/><line x1="1096" y1="385" x2="1096" y2="462" class="line"/><line x1="1258" y1="387" x2="1258" y2="432" class="line"/><line x1="675" y1="990" x2="493" y2="990" class="line"/><line x1="502" y1="884" x2="502" y2="1071" class="line"/><line x1="527" y1="864" x2="527" y2="1149" class="line"/><line x1="518" y1="972" x2="303" y2="972" class="line"/><line x1="336" y1="911" x2="336" y2="1038" class="line"/><line x1="314" y1="918" x2="314" y2="1033" class="line"/><line x1="324" y1="926" x2="284" y2="926" class="line"/><line x1="290" y1="934" x2="290" y2="835" class="line"/><line x1="296" y1="836" x2="184" y2="836" class="line"/><line x1="780" y1="1153" x2="943" y2="1153" class="line"/><line x1="936" y1="1166" x2="936" y2="987" class="line"/><line x1="920" y1="990" x2="1152" y2="990" class="line"/><line x1="1124" y1="950" x2="1124" y2="1022" class="line"/><line x1="1099" y1="979" x2="1099" y2="1025" class="line"/><line x1="1161" y1="430" x2="1161" y2="380" class="line"/><line x1="1092" y1="992" x2="1092" y2="947" class="line"/><line x1="661" y1="379" x2="661" y2="1104" class="line"/><line x1="654" y1="1075" x2="748" y2="1075" class="line"/><line x1="1799" y1="693" x2="1799" y2="1143" class="line"/><line x1="1878" y1="647" x2="2224" y2="647" class="line"/><line x1="1878" y1="500" x2="2220" y2="500" class="line"/><line x1="2217" y1="488" x2="2217" y2="675" class="line"/><line x1="1732" y1="481" x2="1915" y2="481" class="line"/><line x1="1728" y1="601" x2="1934" y2="601" class="line"/><line x1="1887" y1="473" x2="1887" y2="657" class="line"/><line x1="1190" y1="541" x2="1130" y2="541" class="line"/><line x1="1190" y1="568" x2="1129" y2="568" class="line"/><line x1="316" y1="1001" x2="279" y2="1001" class="line"/><circle cx="1734" cy="639" r="3" class="node" id="INT-2-3"/><circle cx="1734" cy="426" r="3" class="node" id="INT-3-3"/><circle cx="1183" cy="639" r="3" class="node" id="INT-5-3"/><circle cx="1183" cy="426" r="3" class="node" id="INT-6-3"/><circle cx="1734" cy="700" r="3" class="node" id="INT-8-3"/><circle cx="2360" cy="1164" r="3" class="node" id="INT-10-3"/><circle cx="1747" cy="1164" r="3" class="node" id="INT-12-3"/><circle cx="1747" cy="1150" r="3" class="node" id="INT-13-3"/><circle cx="1704" cy="1150" r="3" class="node" id="INT-14-3"/><circle cx="1704" cy="1120" r="3" class="node" id="M-300-2"/><circle cx="1272" cy="1120" r="3" class="node" id="INT-18-3"/><circle cx="1272" cy="989" r="3" class="node" id="M-300-3"/><circle cx="1232" cy="989" r="3" class="node" id="INT-21-3"/><circle cx="1704" cy="888" r="3" class="node" id="M-300-1"/><circle cx="1272" cy="888" r="3" class="node" id="INT-23-3"/><circle cx="1748" cy="700" r="3" class="node" id="INT-24-3"/><circle cx="1748" cy="888" r="3" class="node" id="INT-25-3"/><circle cx="2360" cy="765" r="3" class="node" id="INT-27-3"/><circle cx="2304" cy="765" r="3" class="node" id="U-300-3"/><circle cx="2304" cy="1134" r="3" class="node" id="INT-30-3"/><circle cx="1876" cy="1164" r="3" class="node" id="INT-31-3"/><circle cx="1876" cy="1134" r="3" class="node" id="U-300-2"/><circle cx="2360" cy="1117" r="3" class="node" id="INT-33-3"/><circle cx="2304" cy="1117" r="3" class="node" id="INT-34-3"/><circle cx="2360" cy="933" r="3" class="node" id="INT-35-3"/><circle cx="2304" cy="933" r="3" class="node" id="INT-36-3"/><circle cx="2360" cy="713" r="3" class="node" id="INT-38-3"/><circle cx="1329" cy="426" r="3" class="node" id="INT-39-3"/><circle cx="1447" cy="426" r="3" class="node" id="INT-40-3"/><circle cx="1563" cy="426" r="3" class="node" id="INT-41-3"/><circle cx="1564" cy="639" r="3" class="node" id="INT-42-3"/><circle cx="1449" cy="639" r="3" class="node" id="INT-43-3"/><circle cx="1209" cy="639" r="3" class="node" id="INT-44-3"/><circle cx="1329" cy="639" r="3" class="node" id="INT-45-3"/><circle cx="1308" cy="639" r="3" class="node" id="INT-46-3"/><circle cx="1094" cy="639" r="3" class="node" id="INT-47-3"/><circle cx="986" cy="639" r="3" class="node" id="INT-48-3"/><circle cx="891" cy="639" r="3" class="node" id="INT-49-3"/><circle cx="692" cy="639" r="3" class="node" id="INT-50-3"/><circle cx="790" cy="639" r="3" class="node" id="INT-51-3"/><circle cx="792" cy="426" r="3" class="node" id="INT-52-3"/><circle cx="889" cy="426" r="3" class="node" id="INT-53-3"/><circle cx="987" cy="426" r="3" class="node" id="INT-54-3"/><circle cx="1096" cy="426" r="3" class="node" id="INT-55-3"/><circle cx="1258" cy="426" r="3" class="node" id="INT-56-3"/><circle cx="502" cy="990" r="3" class="node" id="INT-58-3"/><circle cx="527" cy="990" r="3" class="node" id="INT-60-3"/><circle cx="502" cy="972" r="3" class="node" id="INT-66-3"/><circle cx="336" cy="972" r="3" class="node" id="INT-67-3"/><circle cx="314" cy="972" r="3" class="node" id="INT-68-3"/><circle cx="314" cy="926" r="3" class="node" id="INT-69-3"/><circle cx="290" cy="926" r="3" class="node" id="L-308"/><circle cx="290" cy="836" r="3" class="node" id="INT-71-3"/><circle cx="936" cy="1153" r="3" class="node" id="INT-72-3"/><circle cx="936" cy="990" r="3" class="node" id="INT-73-3"/><circle cx="1124" cy="990" r="3" class="node" id="INT-74-3"/><circle cx="1099" cy="990" r="3" class="node" id="INT-75-3"/><circle cx="891" cy="667" r="3" class="node" id="N-322"/><circle cx="986" cy="668" r="3" class="node" id="N-323"/><circle cx="1094" cy="662" r="3" class="node" id="N-325"/><circle cx="1094" cy="605" r="3" class="node" id="N-312-1"/><circle cx="986" cy="609" r="3" class="node" id="N-324"/><circle cx="790" cy="605" r="3" class="node" id="N-321"/><circle cx="692" cy="664" r="3" class="node" id="N-320"/><circle cx="1209" cy="667" r="3" class="node" id="N-326"/><circle cx="1308" cy="612" r="3" class="node" id="N-307-1"/><circle cx="792" cy="447" r="3" class="node" id="N-317"/><circle cx="792" cy="392" r="3" class="node" id="N-316"/><circle cx="889" cy="390" r="3" class="node" id="N-315"/><circle cx="987" cy="395" r="3" class="node" id="N-314"/><circle cx="1096" cy="394" r="3" class="node" id="N-313"/><circle cx="1161" cy="426" r="3" class="node" id="INT-76-3"/><circle cx="1161" cy="392" r="3" class="node" id="N-310"/><circle cx="1258" cy="392" r="3" class="node" id="N-308"/><circle cx="1329" cy="393" r="3" class="node" id="N-307"/><circle cx="1447" cy="395" r="3" class="node" id="N-305"/><circle cx="1563" cy="393" r="3" class="node" id="N-301"/><circle cx="1563" cy="452" r="3" class="node" id="N-302-1"/><circle cx="1564" cy="612" r="3" class="node" id="N-302-2"/><circle cx="1564" cy="669" r="3" class="node" id="N-330"/><circle cx="1449" cy="670" r="3" class="node" id="N-329"/><circle cx="1449" cy="611" r="3" class="node" id="N-304-1"/><circle cx="1447" cy="452" r="3" class="node" id="N-304-2"/><circle cx="1329" cy="566" r="3" class="node" id="N-306-2"/><circle cx="1329" cy="451" r="3" class="node" id="N-306-1"/><circle cx="1096" cy="450" r="3" class="node" id="N-312-2"/><circle cx="1092" cy="990" r="3" class="node" id="INT-80-3"/><circle cx="1092" cy="954" r="3" class="node" id="STAIR-E-A-3"/><circle cx="1232" cy="955" r="3" class="node" id="STAIR-M-A-3"/><circle cx="661" cy="639" r="3" class="node" id="INT-81-3"/><circle cx="661" cy="426" r="3" class="node" id="INT-82-3"/><circle cx="661" cy="990" r="3" class="node" id="STAIR-N-D-3"/><circle cx="661" cy="1075" r="3" class="node" id="INT-84-3"/><circle cx="661" cy="388" r="3" class="node" id="STAIR-N-A-3"/><circle cx="527" cy="1069" r="3" class="node" id="L-304"/><circle cx="527" cy="897" r="3" class="node" id="L-305"/><circle cx="502" cy="898" r="3" class="node" id="L-306"/><circle cx="502" cy="1055" r="3" class="node" id="L-303"/><circle cx="336" cy="920" r="3" class="node" id="L-307"/><circle cx="336" cy="1034" r="3" class="node" id="L-302"/><circle cx="314" cy="1024" r="3" class="node" id="L-301"/><circle cx="194" cy="836" r="3" class="node" id="L-309"/><circle cx="1799" cy="700" r="3" class="node" id="INT-85-3"/><circle cx="1799" cy="765" r="3" class="node" id="U-300-1"/><circle cx="1799" cy="1134" r="3" class="node" id="INT-87-3"/><circle cx="1799" cy="713" r="3" class="node" id="INT-88-3"/><circle cx="1329" cy="666" r="3" class="node" id="N-327"/><circle cx="1183" cy="731" r="3" class="node" id="STAIR-N-C-3"/><circle cx="1734" cy="396" r="3" class="node" id="STAIR-N-B-3"/><circle cx="2217" cy="647" r="3" class="node" id="US-LIBRARY-3"/><circle cx="2217" cy="500" r="3" class="node" id="US-LIBRARY-4"/><circle cx="2217" cy="487" r="3" class="node" id="STAIR-H-E-3"/><circle cx="2217" cy="671" r="3" class="node" id="STAIR-H-D-3"/><circle cx="1734" cy="481" r="3" class="node" id="INT-95-3"/><circle cx="1734" cy="601" r="3" class="node" id="INT-96-3"/><circle cx="1887" cy="647" r="3" class="node" id="INT-98-3"/><circle cx="1887" cy="500" r="3" class="node" id="INT-99-3"/><circle cx="1887" cy="481" r="3" class="node" id="INT-100-3"/><circle cx="1887" cy="601" r="3" class="node" id="INT-101-3"/><circle cx="1788" cy="481" r="3" class="node" id="US-LIBRARY-1"/><circle cx="1788" cy="601" r="3" class="node" id="US-LIBRARY-2"/><circle cx="1124" cy="957" r="3" class="node" id="M-BATHROOM-7"/><circle cx="1124" cy="1012" r="3" class="node" id="W-BATHROOM-7"/><circle cx="1183" cy="541" r="3" class="node" id="INT-102-3"/><circle cx="1183" cy="568" r="3" class="node" id="INT-103-3"/><circle cx="1142" cy="568" r="3" class="node" id="M-BATHROOM-6"/><circle cx="1139" cy="541" r="3" class="node" id="W-BATHROOM-6"/><circle cx="314" cy="1001" r="3" class="node" id="INT-104-3"/><circle cx="295" cy="1001" r="3" class="node" id="STAIR-C-L-3"/><circle cx="1695" cy="700" r="3" class="node" id="STAIR-H-F-3"/></svg>