<svg id="floor-plan-1" class="data-svg" width="2448" height="1584" xmlns="http://www.w3.org/2000/svg" style="cursor: none;">
  <image id="floor_plan_image" href="/floor_plans/floor_1.png"/>
  <line x1="107" y1="1116" x2="195" y2="1116" class="line"/><line x1="110" y1="1040" x2="156" y2="1040" class="line"/><line x1="120" y1="1212" x2="120" y2="1033" class="line"/><line x1="171" y1="767" x2="331" y2="767" class="line"/><line x1="184" y1="1051" x2="307" y2="1051" class="line"/><line x1="194" y1="1127" x2="194" y2="1050" class="line"/><line x1="249" y1="1060" x2="249" y2="1014" class="line"/><line x1="259" y1="1019" x2="176" y2="1019" class="line"/><line x1="300" y1="760" x2="300" y2="1084" class="line"/><line x1="367" y1="1221" x2="367" y2="922" class="line"/><line x1="468" y1="809" x2="468" y2="1077" class="line"/><line x1="519" y1="1051" x2="631" y2="1051" class="line"/><line x1="542" y1="938" x2="542" y2="1146" class="line"/><line x1="576" y1="1037" x2="576" y2="1128" class="line"/><line x1="611" y1="823" x2="1867" y2="823" class="line"/><line x1="612" y1="858" x2="612" y2="961" class="line"/><line x1="630" y1="508" x2="1109" y2="508" class="line"/><line x1="657" y1="586" x2="709" y2="586" class="line"/><line x1="659" y1="716" x2="712" y2="716" class="line"/><line x1="663" y1="756" x2="714" y2="756" class="line"/><line x1="693" y1="1068" x2="1076" y2="1068" class="line"/><line x1="696" y1="952" x2="105" y2="952" class="line"/><line x1="699" y1="564" x2="699" y2="637" class="line"/><line x1="712" y1="373" x2="1084" y2="373" class="line"/><line x1="759" y1="920" x2="1053" y2="920" class="line"/><line x1="782" y1="356" x2="782" y2="936" class="line"/><line x1="863" y1="1063" x2="863" y2="1109" class="line"/><line x1="863" y1="1107" x2="893" y2="1107" class="line"/><line x1="877" y1="1075" x2="877" y2="1029" class="line"/><line x1="934" y1="1036" x2="934" y2="1216" class="line"/><line x1="972" y1="1062" x2="972" y2="1111" class="line"/><line x1="977" y1="854" x2="977" y2="936" class="line"/><line x1="1012" y1="1074" x2="1012" y2="1024" class="line"/><line x1="1024" y1="984" x2="1125" y2="984" class="line"/><line x1="1038" y1="1077" x2="1038" y2="977" class="line"/><line x1="1039" y1="523" x2="1039" y2="366" class="line"/><line x1="1054" y1="338" x2="1094" y2="338" class="line"/><line x1="1055" y1="1085" x2="1080" y2="1085" class="line"/><line x1="1060" y1="248" x2="1060" y2="415" class="line"/><line x1="1060" y1="1063" x2="1060" y2="1087" class="line"/><line x1="1066" y1="329" x2="1016" y2="329" class="line"/><line x1="1079" y1="784" x2="1192" y2="784" class="line"/><line x1="1089" y1="872" x2="1089" y2="497" class="line"/><line x1="1101" y1="863" x2="766" y2="863" class="line"/><line x1="1107" y1="690" x2="770" y2="690" class="line"/><line x1="1122" y1="997" x2="1122" y2="940" class="line"/><line x1="1131" y1="655" x2="1131" y2="807" class="line"/><line x1="1201" y1="1195" x2="1201" y2="1017" class="line"/><line x1="1250" y1="991" x2="1177" y2="991" class="line"/><line x1="1289" y1="932" x2="1289" y2="983" class="line"/><line x1="1313" y1="931" x2="1313" y2="985" class="line"/><line x1="1339" y1="1016" x2="1339" y2="1099" class="line"/><line x1="1361" y1="919" x2="1361" y2="1129" class="line"/><line x1="1424" y1="969" x2="1273" y2="969" class="line"/><line x1="1424" y1="903" x2="1424" y2="998" class="line"/><line x1="1527" y1="964" x2="1527" y2="1112" class="line"/><line x1="1553" y1="961" x2="1553" y2="1110" class="line"/><line x1="1588" y1="973" x2="1588" y2="1042" class="line"/><line x1="1641" y1="1096" x2="1717" y2="1096" class="line"/><line x1="1645" y1="859" x2="1645" y2="1034" class="line"/><line x1="1650" y1="915" x2="1616" y2="915" class="line"/><line x1="1655" y1="1015" x2="1655" y2="1101" class="line"/><line x1="1672" y1="1079" x2="1672" y2="1137" class="line"/><line x1="1694" y1="1079" x2="1694" y2="1142" class="line"/><line x1="1710" y1="1039" x2="1710" y2="879" class="line"/><line x1="1772" y1="718" x2="2272" y2="718" class="line"/><line x1="1780" y1="958" x2="1900" y2="958" class="line"/><line x1="1796" y1="689" x2="1796" y2="1227" class="line"/><line x1="1810" y1="786" x2="1738" y2="786" class="line"/><line x1="1823" y1="1027" x2="1139" y2="1027" class="line"/><line x1="1851" y1="628" x2="1933" y2="628" class="line"/><line x1="1860" y1="810" x2="1945" y2="810" class="line"/><line x1="1889" y1="450" x2="1929" y2="450" class="line"/><line x1="1897" y1="261" x2="1897" y2="858" class="line"/><line x1="1902" y1="378" x2="1853" y2="378" class="line"/><line x1="1905" y1="502" x2="1856" y2="502" class="line"/><line x1="1908" y1="577" x2="1855" y2="577" class="line"/><line x1="1909" y1="419" x2="1729" y2="419" class="line"/><line x1="1925" y1="619" x2="1925" y2="671" class="line"/><line x1="1929" y1="448" x2="1929" y2="469" class="line"/><line x1="1938" y1="539" x2="1849" y2="539" class="line"/><line x1="1979" y1="1120" x2="2364" y2="1120" class="line"/><line x1="2047" y1="650" x2="2087" y2="650" class="line"/><line x1="2054" y1="725" x2="2054" y2="630" class="line"/><line x1="2061" y1="677" x2="2023" y2="677" class="line"/><line x1="2124" y1="722" x2="2124" y2="656" class="line"/><line x1="2214" y1="610" x2="2300" y2="610" class="line"/><line x1="2226" y1="724" x2="2226" y2="674" class="line"/><line x1="2246" y1="898" x2="2308" y2="898" class="line"/><line x1="2248" y1="793" x2="2315" y2="793" class="line"/><line x1="2248" y1="776" x2="2296" y2="776" class="line"/><line x1="2249" y1="518" x2="2300" y2="518" class="line"/><line x1="2250" y1="347" x2="2308" y2="347" class="line"/><line x1="2250" y1="425" x2="2298" y2="425" class="line"/><line x1="2254" y1="250" x2="2254" y2="963" class="line"/><line x1="2261" y1="385" x2="2215" y2="385" class="line"/><line x1="2261" y1="523" x2="2226" y2="523" class="line"/><line x1="2261" y1="590" x2="2220" y2="590" class="line"/><line x1="2262" y1="769" x2="1779" y2="769" class="line"/><line x1="2264" y1="994" x2="2435" y2="994" class="line"/><line x1="2319" y1="882" x2="2319" y2="1216" class="line"/><line x1="2338" y1="931" x2="2170" y2="931" class="line"/><line x1="2361" y1="905" x2="2361" y2="1137" class="line"/><line x1="533" y1="986" x2="604" y2="986" class="line"/><line x1="310" y1="992" x2="259" y2="992" class="line"/><line x1="1788" y1="899" x2="1871" y2="899" class="line"/><line x1="1273" y1="810" x2="1273" y2="856" class="line"/><line x1="1431" y1="810" x2="1431" y2="861" class="line"/><line x1="2258" y1="399" x2="2215" y2="399" class="line"/><line x1="2229" y1="453" x2="2292" y2="453" class="line"/><line x1="560" y1="877" x2="277" y2="877" class="line"/><line x1="564" y1="1026" x2="283" y2="1026" class="line"/><line x1="1246" y1="947" x2="1184" y2="947" class="line"/><line x1="1236" y1="811" x2="1236" y2="1043" class="line"/><line x1="764" y1="1060" x2="764" y2="1155" class="line"/><line x1="774" y1="1144" x2="738" y2="1144" class="line"/><line x1="743" y1="1127" x2="743" y2="1156" class="line"/><line x1="1723" y1="239" x2="1723" y2="384" class="line"/><line x1="1787" y1="1052" x2="1924" y2="1052" class="line"/><line x1="1878" y1="951" x2="1878" y2="987" class="line"/><line x1="2264" y1="1140" x2="2264" y2="1048" class="line"/><line x1="2326" y1="955" x2="2266" y2="955" class="line"/><line x1="672" y1="248" x2="672" y2="1192" class="line"/><line x1="698" y1="1028" x2="698" y2="1149" class="line"/><line x1="707" y1="1130" x2="670" y2="1130" class="line"/><circle cx="2254" cy="931" r="3" class="node" id="INT-4"/><circle cx="1897" cy="810" r="3" class="node" id="INT-7"/><circle cx="2319" cy="931" r="3" class="node" id="INT-9"/><circle cx="2319" cy="1120" r="3" class="node" id="INT-10"/><circle cx="2319" cy="994" r="3" class="node" id="INT-12"/><circle cx="2361" cy="1120" r="3" class="node" id="INT-13"/><circle cx="2361" cy="994" r="3" class="node" id="INT-14"/><circle cx="1201" cy="1027" r="3" class="node" id="INT-18"/><circle cx="367" cy="952" r="3" class="node" id="INT-26"/><circle cx="468" cy="952" r="3" class="node" id="INT-27"/><circle cx="300" cy="952" r="3" class="node" id="INT-29"/><circle cx="542" cy="952" r="3" class="node" id="INT-32"/><circle cx="542" cy="1051" r="3" class="node" id="L-103"/><circle cx="576" cy="1051" r="3" class="node" id="INT-34"/><circle cx="1131" cy="784" r="3" class="node" id="INT-38"/><circle cx="1361" cy="1027" r="3" class="node" id="INT-43"/><circle cx="1527" cy="1027" r="3" class="node" id="INT-44"/><circle cx="1553" cy="1027" r="3" class="node" id="INT-45"/><circle cx="1588" cy="1027" r="3" class="node" id="INT-46"/><circle cx="1645" cy="1027" r="3" class="node" id="INT-47"/><circle cx="1655" cy="1027" r="3" class="node" id="INT-48"/><circle cx="1655" cy="1096" r="3" class="node" id="INT-49"/><circle cx="1694" cy="1096" r="3" class="node" id="INT-50"/><circle cx="1672" cy="1096" r="3" class="node" id="INT-51"/><circle cx="1339" cy="1027" r="3" class="node" id="INT-52"/><circle cx="1361" cy="969" r="3" class="node" id="M-110"/><circle cx="1313" cy="969" r="3" class="node" id="INT-54"/><circle cx="1289" cy="969" r="3" class="node" id="INT-55"/><circle cx="1424" cy="969" r="3" class="node" id="INT-56"/><circle cx="1796" cy="823" r="3" class="node" id="INT-68"/><circle cx="1796" cy="1027" r="3" class="node" id="INT-69"/><circle cx="1796" cy="958" r="3" class="node" id="INT-70"/><circle cx="1796" cy="786" r="3" class="node" id="INT-71"/><circle cx="2254" cy="718" r="3" class="node" id="INT-72"/><circle cx="1897" cy="718" r="3" class="node" id="INT-73"/><circle cx="1796" cy="718" r="3" class="node" id="INT-74"/><circle cx="2254" cy="769" r="3" class="node" id="INT-75"/><circle cx="1897" cy="769" r="3" class="node" id="INT-76"/><circle cx="1796" cy="769" r="3" class="node" id="INT-77"/><circle cx="300" cy="767" r="3" class="node" id="INT-80"/><circle cx="699" cy="586" r="3" class="node" id="INT-82"/><circle cx="612" cy="952" r="3" class="node" id="INT-85"/><circle cx="1039" cy="508" r="3" class="node" id="INT-86"/><circle cx="1039" cy="373" r="3" class="node" id="KITCHEN-2"/><circle cx="1060" cy="373" r="3" class="node" id="INT-89"/><circle cx="1060" cy="329" r="3" class="node" id="INT-92"/><circle cx="1060" cy="338" r="3" class="node" id="INT-93"/><circle cx="782" cy="823" r="3" class="node" id="INT-94"/><circle cx="782" cy="508" r="3" class="node" id="INT-95"/><circle cx="782" cy="690" r="3" class="node" id="INT-96"/><circle cx="782" cy="373" r="3" class="node" id="KITCHEN-1"/><circle cx="782" cy="920" r="3" class="node" id="INT-98"/><circle cx="1089" cy="823" r="3" class="node" id="INT-99"/><circle cx="1089" cy="784" r="3" class="node" id="INT-100"/><circle cx="1089" cy="508" r="3" class="node" id="INT-101"/><circle cx="1089" cy="690" r="3" class="node" id="INT-102"/><circle cx="782" cy="863" r="3" class="node" id="BERLIN-GARDEN"/><circle cx="1089" cy="863" r="3" class="node" id="INT-104"/><circle cx="977" cy="920" r="3" class="node" id="INT-105"/><circle cx="977" cy="863" r="3" class="node" id="INT-106"/><circle cx="1645" cy="915" r="3" class="node" id="INT-107"/><circle cx="2254" cy="347" r="3" class="node" id="INT-108"/><circle cx="2254" cy="385" r="3" class="node" id="INT-109"/><circle cx="2254" cy="425" r="3" class="node" id="INT-111"/><circle cx="2254" cy="523" r="3" class="node" id="INT-115"/><circle cx="2254" cy="518" r="3" class="node" id="INT-116"/><circle cx="2254" cy="610" r="3" class="node" id="INT-119"/><circle cx="2254" cy="793" r="3" class="node" id="INT-120"/><circle cx="2254" cy="776" r="3" class="node" id="INT-121"/><circle cx="2254" cy="898" r="3" class="node" id="INT-122"/><circle cx="120" cy="1116" r="3" class="node" id="INT-123"/><circle cx="194" cy="1116" r="3" class="node" id="INT-124"/><circle cx="300" cy="1051" r="3" class="node" id="L-101"/><circle cx="194" cy="1051" r="3" class="node" id="INT-126"/><circle cx="120" cy="1040" r="3" class="node" id="INT-127"/><circle cx="249" cy="1051" r="3" class="node" id="INT-129"/><circle cx="249" cy="1019" r="3" class="node" id="INT-130"/><circle cx="1710" cy="1027" r="3" class="node" id="INT-131"/><circle cx="1897" cy="378" r="3" class="node" id="INT-132"/><circle cx="1897" cy="419" r="3" class="node" id="INT-134"/><circle cx="1897" cy="502" r="3" class="node" id="INT-135"/><circle cx="1897" cy="539" r="3" class="node" id="INT-137"/><circle cx="1897" cy="577" r="3" class="node" id="INT-138"/><circle cx="1897" cy="628" r="3" class="node" id="INT-139"/><circle cx="1925" cy="628" r="3" class="node" id="INT-140"/><circle cx="1897" cy="450" r="3" class="node" id="INT-141"/><circle cx="1929" cy="450" r="3" class="node" id="INT-142"/><circle cx="2054" cy="718" r="3" class="node" id="INT-143"/><circle cx="2054" cy="650" r="3" class="node" id="INT-144"/><circle cx="2054" cy="677" r="3" class="node" id="NURSE-US"/><circle cx="2124" cy="718" r="3" class="node" id="INT-146"/><circle cx="2226" cy="718" r="3" class="node" id="INT-147"/><circle cx="2254" cy="590" r="3" class="node" id="INT-148"/><circle cx="934" cy="1068" r="3" class="node" id="INT-149"/><circle cx="1060" cy="1068" r="3" class="node" id="INT-150"/><circle cx="1060" cy="1085" r="3" class="node" id="INT-151"/><circle cx="877" cy="1068" r="3" class="node" id="INT-152"/><circle cx="863" cy="1068" r="3" class="node" id="INT-153"/><circle cx="863" cy="1107" r="3" class="node" id="NURSE-LS"/><circle cx="972" cy="1068" r="3" class="node" id="INT-155"/><circle cx="1012" cy="1068" r="3" class="node" id="INT-156"/><circle cx="1038" cy="1068" r="3" class="node" id="INT-157"/><circle cx="1038" cy="984" r="3" class="node" id="INT-158"/><circle cx="1122" cy="984" r="3" class="node" id="INT-159"/><circle cx="542" cy="986" r="3" class="node" id="INT-160"/><circle cx="300" cy="992" r="3" class="node" id="INT-161"/><circle cx="1796" cy="899" r="3" class="node" id="INT-162"/><circle cx="934" cy="1175" r="3" class="node" id="EXIT-ANNEX"/><circle cx="1796" cy="1181" r="3" class="node" id="EXIT-101"/><circle cx="367" cy="1133" r="3" class="node" id="EXIT-LS"/><circle cx="120" cy="1185" r="3" class="node" id="EXIT-HM"/><circle cx="1868" cy="378" r="3" class="node" id="U-109"/><circle cx="2292" cy="347" r="3" class="node" id="U-114"/><circle cx="2291" cy="425" r="3" class="node" id="U-115"/><circle cx="2293" cy="518" r="3" class="node" id="U-117"/><circle cx="2281" cy="453" r="3" class="node" id="U-116"/><circle cx="2221" cy="610" r="3" class="node" id="U-111"/><circle cx="2227" cy="590" r="3" class="node" id="M-BATHROOM-1"/><circle cx="1201" cy="1183" r="3" class="node" id="EXIT-MS"/><circle cx="612" cy="885" r="3" class="node" id="L-104"/><circle cx="1089" cy="638" r="3" class="node" id="CAFETERIA-2"/><circle cx="1035" cy="690" r="3" class="node" id="CAFETERIA-1"/><circle cx="782" cy="778" r="3" class="node" id="CAFETERIA-3"/><circle cx="713" cy="508" r="3" class="node" id="CAFETERIA-4"/><circle cx="1869" cy="502" r="3" class="node" id="U-108"/><circle cx="1856" cy="539" r="3" class="node" id="U-106"/><circle cx="1863" cy="577" r="3" class="node" id="U-105"/><circle cx="1862" cy="628" r="3" class="node" id="U-104"/><circle cx="1273" cy="823" r="3" class="node" id="INT-163"/><circle cx="1431" cy="823" r="3" class="node" id="INT-164"/><circle cx="1273" cy="847" r="3" class="node" id="M-BATHROOM-2"/><circle cx="1431" cy="851" r="3" class="node" id="W-BATHROOM-2"/><circle cx="2254" cy="399" r="3" class="node" id="INT-165"/><circle cx="2228" cy="385" r="3" class="node" id="U-113"/><circle cx="2228" cy="399" r="3" class="node" id="W-BATHROOM-1"/><circle cx="1527" cy="1067" r="3" class="node" id="M-102"/><circle cx="1527" cy="987" r="3" class="node" id="M-109"/><circle cx="1553" cy="1069" r="3" class="node" id="M-103"/><circle cx="1553" cy="986" r="3" class="node" id="M-108"/><circle cx="1361" cy="1073" r="3" class="node" id="M-101"/><circle cx="1655" cy="1067" r="3" class="node" id="M-104"/><circle cx="1694" cy="1126" r="3" class="node" id="MS-PRINCIPAL"/><circle cx="1672" cy="1126" r="3" class="node" id="MS-ASSISTANT"/><circle cx="1339" cy="1069" r="3" class="node" id="M-100"/><circle cx="1313" cy="945" r="3" class="node" id="M-112"/><circle cx="1289" cy="946" r="3" class="node" id="M-111"/><circle cx="1588" cy="987" r="3" class="node" id="M-107"/><circle cx="1931" cy="539" r="3" class="node" id="U-107"/><circle cx="705" cy="756" r="3" class="node" id="M-BATHROOM-3"/><circle cx="712" cy="716" r="3" class="node" id="W-BATHROOM-3"/><circle cx="2254" cy="453" r="3" class="node" id="INT-166"/><circle cx="2231" cy="453" r="3" class="node" id="STAIR-H-E-1"/><circle cx="185" cy="767" r="3" class="node" id="L-105B"/><circle cx="1622" cy="915" r="3" class="node" id="M-106"/><circle cx="1932" cy="810" r="3" class="node" id="HAWLEY-1"/><circle cx="1897" cy="846" r="3" class="node" id="U-103"/><circle cx="1868" cy="899" r="3" class="node" id="U-102"/><circle cx="2300" cy="793" r="3" class="node" id="U-120"/><circle cx="2285" cy="776" r="3" class="node" id="U-119"/><circle cx="2361" cy="914" r="3" class="node" id="STAIR-H-G-1"/><circle cx="576" cy="1116" r="3" class="node" id="LS-PRINCIPAL"/><circle cx="542" cy="1111" r="3" class="node" id="LS-ASSISTANT"/><circle cx="972" cy="1100" r="3" class="node" id="A-104"/><circle cx="1162" cy="784" r="3" class="node" id="N-101A"/><circle cx="1131" cy="670" r="3" class="node" id="N-101"/><circle cx="300" cy="877" r="3" class="node" id="INT-167"/><circle cx="468" cy="877" r="3" class="node" id="INT-168"/><circle cx="546" cy="877" r="3" class="node" id="L-105A"/><circle cx="468" cy="1056" r="3" class="node" id="L-102"/><circle cx="194" cy="1080" r="3" class="node" id="HEAD-OFFICE"/><circle cx="194" cy="1019" r="3" class="node" id="HEAD-CONF"/><circle cx="171" cy="952" r="3" class="node" id="ADMISSIONS"/><circle cx="300" cy="1026" r="3" class="node" id="INT-169"/><circle cx="367" cy="1026" r="3" class="node" id="INT-170"/><circle cx="468" cy="1026" r="3" class="node" id="INT-171"/><circle cx="542" cy="1026" r="3" class="node" id="INT-172"/><circle cx="1991" cy="1120" r="3" class="node" id="MANUAL-INT-1"/><circle cx="1925" cy="659" r="3" class="node" id="STAIR-H-B-1"/><circle cx="1929" cy="464" r="3" class="node" id="STAIR-H-C-1"/><circle cx="2226" cy="682" r="3" class="node" id="STAIR-H-D-1"/><circle cx="1747" cy="786" r="3" class="node" id="STAIR-H-F-1"/><circle cx="1710" cy="951" r="3" class="node" id="STAIR-M-B-1"/><circle cx="1236" cy="823" r="3" class="node" id="INT-173"/><circle cx="1236" cy="991" r="3" class="node" id="INT-174"/><circle cx="1236" cy="1027" r="3" class="node" id="INT-175"/><circle cx="1236" cy="947" r="3" class="node" id="INT-176"/><circle cx="1236" cy="906" r="3" class="node" id="STAIR-M-A-1"/><circle cx="1122" cy="950" r="3" class="node" id="STAIR-E-A-1"/><circle cx="877" cy="1036" r="3" class="node" id="A-101"/><circle cx="1012" cy="1032" r="3" class="node" id="A-102"/><circle cx="764" cy="1068" r="3" class="node" id="INT-177"/><circle cx="764" cy="1144" r="3" class="node" id="INT-178"/><circle cx="743" cy="1144" r="3" class="node" id="INT-179"/><circle cx="743" cy="1131" r="3" class="node" id="STAIR-E-B-1"/><circle cx="1723" cy="253" r="3" class="node" id="EXIT-STAIR-N-B"/><circle cx="1723" cy="365" r="3" class="node" id="STAIR-N-B-1"/><circle cx="1060" cy="257" r="3" class="node" id="EXIT-KITCHEN"/><circle cx="1897" cy="275" r="3" class="node" id="EXIT-US-WEST"/><circle cx="2254" cy="273" r="3" class="node" id="EXIT-US-EAST"/><circle cx="1796" cy="1052" r="3" class="node" id="INT-189"/><circle cx="1878" cy="958" r="3" class="node" id="INT-190"/><circle cx="1878" cy="979" r="3" class="node" id="U-101"/><circle cx="1908" cy="1052" r="3" class="node" id="HAWLEY-2"/><circle cx="2264" cy="1120" r="3" class="node" id="INT-192"/><circle cx="2264" cy="1058" r="3" class="node" id="HAWLEY-3"/><circle cx="2319" cy="955" r="3" class="node" id="INT-193"/><circle cx="1870" cy="810" r="3" class="node" id="STAIR-H-A-1"/><circle cx="1857" cy="419" r="3" class="node" id="U-108A"/><circle cx="1754" cy="419" r="3" class="node" id="TRASH-ROOM"/><circle cx="2291" cy="994" r="3" class="node" id="U-121"/><circle cx="2230" cy="523" r="3" class="node" id="U-112"/><circle cx="2291" cy="610" r="3" class="node" id="U-118"/><circle cx="1881" cy="1052" r="3" class="node" id="MANUAL-INT-2"/><circle cx="672" cy="823" r="3" class="node" id="INT-194"/><circle cx="672" cy="508" r="3" class="node" id="INT-195"/><circle cx="672" cy="586" r="3" class="node" id="INT-196"/><circle cx="672" cy="716" r="3" class="node" id="INT-197"/><circle cx="672" cy="756" r="3" class="node" id="INT-198"/><circle cx="672" cy="952" r="3" class="node" id="INT-199"/><circle cx="672" cy="1176" r="3" class="node" id="EXIT-LINK"/><circle cx="672" cy="373" r="3" class="node" id="STAIR-N-A-1"/><circle cx="672" cy="255" r="3" class="node" id="EXIT-STAIR-N-A"/><circle cx="573" cy="986" r="3" class="node" id="STAIR-L-A-1"/><circle cx="271" cy="992" r="3" class="node" id="STAIR-C-L-1"/><circle cx="698" cy="1068" r="3" class="node" id="STAIR-N-D-1"/><circle cx="672" cy="1130" r="3" class="node" id="INT-202"/><circle cx="698" cy="1130" r="3" class="node" id="INT-203"/></svg>